<svg width="47" height="47" viewBox="0 0 47 47" fill="none" xmlns="http://www.w3.org/2000/svg">
<path d="M23.5001 39.1667C27.6551 39.1667 31.64 37.5161 34.5781 34.578C37.5162 31.64 39.1667 27.6551 39.1667 23.5C39.1667 19.345 37.5162 15.3601 34.5781 12.422C31.64 9.48394 27.6551 7.83335 23.5001 7.83335M23.5001 39.1667C19.345 39.1667 15.3601 37.5161 12.4221 34.578C9.484 31.64 7.83341 27.6551 7.83341 23.5M23.5001 39.1667V43.0833M23.5001 7.83335C19.345 7.83335 15.3601 9.48394 12.4221 12.422C9.484 15.3601 7.83341 19.345 7.83341 23.5M23.5001 7.83335V3.91669M7.83341 23.5H3.91675M27.4167 23.5C27.4167 24.5388 27.0041 25.535 26.2696 26.2695C25.5351 27.004 24.5388 27.4167 23.5001 27.4167C22.4613 27.4167 21.4651 27.004 20.7306 26.2695C19.9961 25.535 19.5834 24.5388 19.5834 23.5C19.5834 22.4613 19.9961 21.465 20.7306 20.7305C21.4651 19.996 22.4613 19.5834 23.5001 19.5834C24.5388 19.5834 25.5351 19.996 26.2696 20.7305C27.0041 21.465 27.4167 22.4613 27.4167 23.5ZM27.4167 23.5H43.0834M33.2917 40.4592L31.3334 37.0713M21.5417 20.1121L13.7084 6.54085M40.4592 33.2917L37.0713 31.3334M6.54091 13.7084L9.92883 15.6667M40.4592 13.7084L37.0713 15.6667M6.54091 33.2917L9.92883 31.3334M33.2917 6.54085L31.3334 9.92877M21.5417 26.8879L13.7084 40.4592" stroke="black" stroke-width="4" stroke-linecap="round" stroke-linejoin="round"/>
</svg>
