<svg width="35" height="35" viewBox="0 0 35 35" fill="none" xmlns="http://www.w3.org/2000/svg">
<path d="M21.875 7.29169L27.7083 13.125M30.8787 9.93419C31.6498 9.16335 32.083 8.11779 32.0831 7.02752C32.0833 5.93725 31.6503 4.89158 30.8795 4.12055C30.1086 3.34951 29.0631 2.91627 27.9728 2.91614C26.8825 2.916 25.8369 3.34898 25.0658 4.11982L5.6029 23.5871C5.26431 23.9247 5.0139 24.3404 4.87374 24.7975L2.94728 31.1442C2.90959 31.2703 2.90674 31.4043 2.93904 31.5319C2.97134 31.6595 3.03758 31.776 3.13073 31.869C3.22388 31.962 3.34047 32.028 3.46813 32.0601C3.59579 32.0922 3.72976 32.0892 3.85582 32.0513L10.2039 30.1263C10.6607 29.9874 11.0763 29.7385 11.4144 29.4015L30.8787 9.93419Z" stroke="black" stroke-width="2.91667" stroke-linecap="round" stroke-linejoin="round"/>
</svg>
